<svg width="32" height="27" viewBox="0 0 32 27" fill="none" xmlns="http://www.w3.org/2000/svg">
<path d="M29.8276 5.2356H26.8998L26.2272 2.20139C25.9399 0.905253 24.8106 0 23.4808 0H13.3164C11.9867 0 10.8573 0.90519 10.57 2.20133L9.89738 5.2356H9.20263V3.94096C9.20263 3.2114 8.608 2.6178 7.87712 2.6178H3.59138C2.8605 2.6178 2.26588 3.2114 2.26588 3.94096V5.2356H2.17231C0.9745 5.2356 0 6.20843 0 7.40424V22.0919C0 23.2877 0.9745 24.2605 2.17237 24.2605H4.39406H12.2471C14.0205 25.4073 16.1329 26.0741 18.3986 26.0741C20.6643 26.0741 22.7767 25.4073 24.55 24.2605H29.8276C31.0255 24.2605 32 23.2877 32 22.0919V7.40424C32 6.20843 31.0255 5.2356 29.8276 5.2356ZM11.7904 2.47093C11.9501 1.7508 12.5776 1.24779 13.3164 1.24779H23.4807C24.2196 1.24779 24.8471 1.75073 25.0067 2.47093L25.6196 5.2356H24.55C22.7766 4.08883 20.6643 3.42204 18.3986 3.42204C16.1329 3.42204 14.0205 4.08883 12.2471 5.2356H11.1775L11.7904 2.47093ZM3.51588 3.94096C3.51588 3.89941 3.54975 3.86565 3.59138 3.86565H7.87706C7.91869 3.86565 7.95256 3.89947 7.95256 3.94096V5.2356H3.51588V3.94096ZM5.01906 23.0126V16.2357C5.01906 15.8911 4.73925 15.6118 4.39406 15.6118C4.04887 15.6118 3.76906 15.8911 3.76906 16.2357V23.0127H2.17237C1.66381 23.0127 1.25 22.5996 1.25 22.0919V7.40424C1.25 6.89649 1.66381 6.48345 2.17237 6.48345H2.89094H8.57756H10.3991H10.6496C8.43769 8.55152 7.053 11.4912 7.053 14.748C7.053 18.0049 8.43769 20.9445 10.6496 23.0126H5.01906ZM24.1692 23.0127C23.4242 23.5326 22.606 23.9547 21.7333 24.2605C20.6888 24.6265 19.5667 24.8262 18.3986 24.8262C17.2304 24.8262 16.1082 24.6264 15.0638 24.2605C14.1911 23.9547 13.373 23.5326 12.6279 23.0127C10.0154 21.1892 8.303 18.1648 8.303 14.7481C8.303 11.3314 10.0154 8.30694 12.6279 6.48352C13.3729 5.96354 14.1911 5.54145 15.0638 5.23567C16.1083 4.86967 17.2304 4.66995 18.3986 4.66995C19.5667 4.66995 20.6889 4.86973 21.7333 5.23567C22.606 5.54145 23.4241 5.96354 24.1692 6.48352C26.7817 8.30694 28.4941 11.3314 28.4941 14.7481C28.4941 18.1648 26.7817 21.1892 24.1692 23.0127ZM30.75 22.0918C30.75 22.5996 30.3363 23.0126 29.8276 23.0126H26.1475C28.3594 20.9445 29.7441 18.0049 29.7441 14.748C29.7441 11.4912 28.3594 8.55152 26.1475 6.48345H26.398H29.8276C30.3363 6.48345 30.75 6.89649 30.75 7.40424V22.0918Z" fill="#5221E6"/>
<path d="M18.3704 7.11133C14.1225 7.11133 10.6667 10.5672 10.6667 14.8151C10.6667 19.0629 14.1225 22.5187 18.3704 22.5187C18.9893 22.5187 19.6053 22.445 20.2014 22.2997C20.5163 22.2229 20.7092 21.9054 20.6324 21.5906C20.5557 21.2758 20.2382 21.0827 19.9234 21.1596C19.4182 21.2828 18.8957 21.3452 18.3704 21.3452C14.7696 21.3452 11.8402 18.4158 11.8402 14.8151C11.8402 11.2144 14.7696 8.28493 18.3704 8.28493C21.9711 8.28493 24.9005 11.2143 24.9005 14.8151C24.9005 16.1275 24.513 17.3929 23.7797 18.4745C23.5979 18.7427 23.6679 19.1076 23.9362 19.2894C24.2042 19.4712 24.5692 19.4013 24.7511 19.133C25.6166 17.8564 26.0741 16.3633 26.0741 14.8152C26.0741 10.5672 22.6182 7.11133 18.3704 7.11133Z" fill="#5221E6"/>
<path d="M4.74073 8.29639C3.43367 8.29639 2.37036 9.35976 2.37036 10.6668C2.37036 11.9738 3.43373 13.0371 4.74073 13.0371C6.04773 13.0371 7.1111 11.9738 7.1111 10.6668C7.1111 9.35976 6.04773 8.29639 4.74073 8.29639ZM4.74073 11.764C4.13577 11.764 3.64356 11.2718 3.64356 10.6668C3.64356 10.0619 4.13577 9.56965 4.74073 9.56965C5.34569 9.56965 5.83791 10.0619 5.83791 10.6668C5.83791 11.2718 5.34575 11.764 4.74073 11.764Z" fill="#5221E6"/>
<path d="M23.6924 20.6246C23.6847 20.5872 23.6734 20.5499 23.6586 20.5138C23.6438 20.4782 23.6254 20.4439 23.6041 20.4119C23.5828 20.3793 23.5579 20.3491 23.5306 20.3218C23.5033 20.2946 23.4726 20.2697 23.4405 20.2478C23.4079 20.2264 23.3736 20.2081 23.338 20.1933C23.3024 20.1785 23.2652 20.1672 23.2272 20.1595C23.1508 20.1441 23.072 20.1441 22.9955 20.1595C22.9575 20.1672 22.9202 20.1785 22.8847 20.1933C22.8491 20.2081 22.8148 20.2264 22.7822 20.2478C22.7502 20.2697 22.72 20.2946 22.6921 20.3218C22.6648 20.3491 22.64 20.3793 22.6186 20.4119C22.5973 20.4439 22.5789 20.4782 22.5641 20.5138C22.5493 20.5499 22.538 20.5872 22.5303 20.6246C22.5226 20.6631 22.5185 20.7022 22.5185 20.7407C22.5185 20.7792 22.5226 20.8183 22.5303 20.8562C22.538 20.8941 22.5493 20.9315 22.5641 20.967C22.5789 21.0031 22.5973 21.0375 22.6186 21.0695C22.64 21.1021 22.6648 21.1323 22.6921 21.1595C22.72 21.1868 22.7501 21.2117 22.7822 21.233C22.8148 21.2543 22.8491 21.2727 22.8847 21.2875C22.9203 21.3023 22.9575 21.3136 22.9955 21.3213C23.034 21.329 23.0726 21.3331 23.1111 21.3331C23.1501 21.3331 23.1887 21.329 23.2272 21.3213C23.2652 21.3136 23.3025 21.3023 23.338 21.2875C23.3736 21.2727 23.408 21.2543 23.4405 21.233C23.4725 21.2117 23.5033 21.1868 23.5306 21.1595C23.6408 21.0494 23.7037 20.8965 23.7037 20.7407C23.7037 20.7022 23.7001 20.6631 23.6924 20.6246Z" fill="#5221E6"/>
</svg>
